<svg xmlns="http://www.w3.org/2000/svg"><rect width="100%" height="100%" fill="#E4E6EB"/><svg x="50%" y="50%" width="24" height="24" overflow="visible"><path d="M6.857-12A5.143 5.143 0 0112-6.857V6.857A5.143 5.143 0 016.857 12H-6.857A5.143 5.143 0 01-12 6.857V-6.857A5.143 5.143 0 01-6.857-12H6.857zm-12 6.857L-10.286 0v6.857a3.429 3.429 0 003.24 3.424l.189.005H6.857a3.429 3.429 0 003.424-3.24l.005-.189V5.143L5.143 0 2.57 2.571l-7.714-7.714zM6.43-9.429a3 3 0 100 6 3 3 0 000-6z" fill="#A6AEBD"/></svg></svg>
